<svg width="489" height="292" viewBox="0 0 489 292" fill="none" xmlns="http://www.w3.org/2000/svg">
<path d="M244.425 0C151.025 0 66.325 51.1 3.825 134.1C-1.275 140.9 -1.275 150.4 3.825 157.2C66.325 240.3 151.025 291.4 244.425 291.4C337.825 291.4 422.525 240.3 485.025 157.3C490.125 150.5 490.125 141 485.025 134.2C422.525 51.1 337.825 0 244.425 0ZM251.125 248.3C189.125 252.2 137.925 201.1 141.825 139C145.025 87.8 186.525 46.3 237.725 43.1C299.725 39.2 350.925 90.3 347.025 152.4C343.725 203.5 302.225 245 251.125 248.3ZM248.025 200.9C214.625 203 187.025 175.5 189.225 142.1C190.925 114.5 213.325 92.2 240.925 90.4C274.325 88.3 301.925 115.8 299.725 149.2C297.925 176.9 275.525 199.2 248.025 200.9Z" fill="black"/>
</svg>
