<?xml version="1.0" encoding="utf-8"?>
<!-- Generator: Adobe Illustrator 23.1.0, SVG Export Plug-In . SVG Version: 6.00 Build 0)  -->
<svg version="1.1" id="Слой_1" xmlns="http://www.w3.org/2000/svg" xmlns:xlink="http://www.w3.org/1999/xlink" x="0px" y="0px"
	 viewBox="0 0 640.7 316" style="enable-background:new 0 0 640.7 316;" xml:space="preserve">
<style type="text/css">
	.st0{fill:#080808;}
	.st1{fill-rule:evenodd;clip-rule:evenodd;fill:#080808;}
	.st2{fill-rule:evenodd;clip-rule:evenodd;fill:#F9B23E;}
</style>
<g>
	<path class="st0" d="M415.4,315.8c-13.6,0-27.1,0-40.8,0c-4.9,0-6-0.9-5.8-5.8c0.3-7.7,0.3-15.4,0-23.1c-0.2-5.4,0.5-6.1,6.1-6.1
		c18.9,0.1,37.8,0.1,56.8,0.1c2.5,0,5.1,0,7.6-0.5s4-2,4.3-4.4c0.8-7.4,0.7-15,0.2-22.4c-0.3-4-2.7-5.4-7.4-5.4
		c-13.8,0-27.6,0-41.5,0.1c-5.8,0-11.2-1.3-16-4.8c-7.4-5.3-9.9-12.9-10-21.6c-0.1-16.6-0.2-33.3,0-49.9c0.2-16.3,10.4-26,26.6-26.1
		c24.6-0.1,49.2-0.1,73.8-0.1c5.5,0,6.1,0.6,5.9,6.2c-0.3,7.4-0.3,15,0.1,22.4c0.3,5.4-0.7,6.2-6,6.2c-18.1-0.1-36.1-0.1-54.1-0.1
		c-1.5,0-3.1,0.2-4.6,0.5c-2.3,0.3-3.6,1.7-3.8,4c-0.7,8.1-0.6,16-0.1,24.1c0.2,3.2,2.4,4.1,5.1,4.2c3.8,0.1,7.6,0.1,11.4,0.1
		c10.2,0,20.5,0,30.8,0c17.5,0,27.4,9.7,27.6,27.2c0.2,16.1,0.1,32.1,0,48.2c0,5.3-0.9,10.4-3.6,15.1c-5,8.7-13.1,11.7-22.5,11.9
		C442.1,316.1,428.8,315.9,415.4,315.8C415.4,315.9,415.4,315.9,415.4,315.8z"/>
	<path class="st0" d="M343.7,241c-0.1-23-0.1-46-0.1-69c-0.1-16-9.9-26-25.7-26.1c-27.4-0.1-54.8-0.1-82.2-0.1c-4.1,0-4.7,0.9-4.7,5
		c0.1,7.5,0.2,15,0,22.5c-0.1,6.8,0.3,7.4,7.2,7.4c20.2,0,40.3-0.1,60.5,0c5.9,0,7.3,1.5,7.4,7.3c0.1,6.6,0.1,13.1,0.1,19.8
		c0.1,5-0.5,5.7-5.4,5.7c-16.6,0-33.2-0.1-49.8,0c-15.4,0.1-25.8,9.8-26.1,25.2c-0.3,17.1-0.3,34.2,0,51.3
		c0.3,16.4,10.4,25.9,26.8,25.9c11.2,0,22.3-0.4,33.4,0.1c9.2,0.4,17.2-2,22.8-10.7c0.7,1.7,1.1,2.9,1.5,4c1.5,5.8,3,7.1,8.8,6.7
		c6.8-0.5,13.6-0.3,20.4,0c4.9,0.3,5.6-0.5,5.5-5.5C344,287.2,343.8,264.1,343.7,241z M306.5,257.3c-0.3,5.7-0.7,11.3-0.5,17
		c0.1,4.6-1.9,6.6-6.4,6.6c-5.2,0.1-10.4,0-15.7,0c-5,0-10,0.1-15,0c-4.6-0.1-6.8-2.2-6.8-6.8c-0.1-6.4-0.1-12.7,0-19.1
		c0.1-4.8,2.3-6.8,7.1-6.9c9.2-0.1,18.5,0.2,27.7-0.7C304.4,246.9,306.9,249.6,306.5,257.3z"/>
	<path class="st0" d="M587.6,233.1c-1.1-6.5,0.1-12.9,4.7-19.1c0.4-0.5,0.7-1.1,1-1.7c10.2-21.5,20.3-43.1,30.6-64.7
		c1.5-3.1,0.3-3.2-2.3-3.2c-10.9-0.1-21.8,0.8-32.7,0c-4.1-0.3-6.3,1.5-8,5.2c-5.7,12.2-10.6,24.9-17.5,36.5
		c-5.7,9.6-9.3,19.5-11.2,29.9c-1.7,9.4-1.9,19.1-0.9,29.1c0.2,1.8,0.7,3.5,1.4,5.1c1.1,2.3,2.2,4.7,3.3,7l42.5,55.8l23.1-5.4
		l18.9-4.4L587.6,233.1z"/>
	<path class="st0" d="M544.4,203c0,35.6,0,71,0,106.6c0,5.8-0.7,6.4-6.4,6.2c-8.4-0.3-16.7-0.5-25,0c-5.6,0.3-6.5-0.6-6.5-6.1
		c0-52.4,0.1-104.8,0.1-157.2c0-18.9-0.1-37.8-0.1-56.6c0-5.5,1-6.4,6.4-6.4c8.6,0,17.1,0,25.7,0c5,0,5.8,0.7,5.8,5.8
		C544.4,131,544.4,167,544.4,203z"/>
	<path class="st1" d="M137.5,124.8c0.7-1.6,1.8-2.9,3.4-3.9v2.9c0,0.6-0.4,1-1,1H137.5z M137.3,238.5v-19.7h3.7l0,0h0h33.9
		c0,18.6,0,37.2,0.1,55.7c0,4.4,2.1,6.6,6.6,6.6c4.7,0.1,9.4,0.1,14-0.1c3.1-0.1,4.7,1.3,4.6,4.3c-0.2,8.8-0.4,17.6,0,26.4
		c0.1,2.4-1.1,4.2-3.7,4.2c-4.6-0.1-9.3,0-13.9,0h0c-8.1,0.1-16.1,0.3-24.1-0.6c-11.8-1.3-20.1-10.3-20.9-22.1
		c-0.8-13.8-0.6-27.5-0.4-41.3c0-1.5,0-3.1,0.1-4.6L137.3,238.5L137.3,238.5z"/>
	<path class="st2" d="M175.1,103.9c0-0.6-0.4-1-1-1h-36c-0.6,0-1,0.4-1,1v58.9c0,0.6-0.4,1-1,1H80.9c-0.6,0-1,0.4-1,1v36.1
		c0,0.6,0.4,1,1,1H137l0,0l0,0l0,0h37c0.6,0,1-0.4,1-1V103.9z"/>
	<path class="st2" d="M113.2,12.9C133,4.9,153.1,0.7,173.6,0c0.6,0,1,0.4,1,1v36.8c0,0.5-0.4,1-1,1c-6.2,0.3-12.4,1-18.6,2.1
		c-71.5,12.5-121.9,78.4-116,151.2c0.2,2.9,0.5,5.7,0.9,8.5c0.1,0.6-0.4,1.1-1,1.1h-37c-0.5,0-0.9-0.4-1-0.9
		c-1.1-9.6-1.4-19.4-0.9-29.4c1.2-24.1,6.8-47.1,17.3-68.7C38.1,60.8,69.9,30.6,113.2,12.9z"/>
</g>
</svg>
